<?xml version="1.0" standalone="no"?>
<!DOCTYPE svg PUBLIC "-//W3C//DTD SVG 20010904//EN"
 "http://www.w3.org/TR/2001/REC-SVG-20010904/DTD/svg10.dtd">
<svg version="1.0" xmlns="http://www.w3.org/2000/svg"
 width="160.000000pt" height="160.000000pt" viewBox="0 0 160.000000 160.000000"
 preserveAspectRatio="xMidYMid meet">

<g transform="translate(0.000000,160.000000) scale(0.100000,-0.100000)"
fill="#000000" stroke="none">
<path d="M763 1564 c-3 -9 -1 -58 4 -108 9 -75 9 -94 -3 -107 -8 -9 -11 -18
-8 -21 3 -4 -21 -12 -53 -18 -77 -16 -156 -52 -219 -100 -68 -51 -86 -46 -159
48 -42 53 -63 72 -80 72 -26 0 -36 -17 -24 -41 5 -10 37 -40 73 -68 36 -29 67
-62 70 -76 4 -14 11 -25 16 -25 5 0 -3 -21 -19 -47 -37 -60 -71 -161 -71 -208
0 -20 -4 -34 -9 -30 -5 3 -21 0 -34 -6 -18 -8 -46 -8 -107 0 -84 11 -120 4
-120 -23 0 -32 26 -38 121 -26 64 7 95 8 103 0 5 -5 17 -10 27 -10 12 0 18
-12 22 -48 3 -26 15 -73 27 -104 20 -54 24 -58 73 -77 29 -10 65 -24 80 -30
28 -11 28 -11 -13 46 -152 213 -78 509 156 624 290 143 622 -81 602 -406 -6
-92 -27 -149 -84 -226 l-36 -49 29 11 c15 6 51 20 80 30 49 19 53 23 73 77 12
31 24 78 27 104 4 36 10 48 22 48 10 0 22 5 27 10 8 8 39 7 103 0 95 -12 121
-6 121 26 0 27 -36 34 -117 23 -103 -14 -153 0 -153 43 0 41 -37 145 -71 201
-16 26 -24 47 -19 47 5 0 12 11 16 25 3 14 34 47 70 76 36 28 68 58 73 68 12
24 2 41 -24 41 -17 0 -38 -19 -80 -72 -73 -94 -91 -99 -159 -48 -67 50 -148
86 -230 101 -36 7 -63 15 -61 19 2 4 -1 15 -8 24 -9 12 -10 39 -3 105 5 48 6
96 3 105 -8 21 -46 21 -54 0z"/>
<path d="M813 985 c-16 -11 -28 -13 -48 -5 -53 20 -60 15 -83 -64 -12 -41 -22
-76 -22 -79 0 -2 25 -21 55 -41 46 -30 55 -41 55 -66 0 -30 0 -30 -60 -30 -48
0 -60 3 -60 16 0 10 -7 14 -22 12 -20 -3 -23 -10 -26 -49 -2 -31 2 -50 12 -58
17 -14 36 -7 36 15 0 11 15 14 62 14 l61 0 -6 -97 c-4 -54 -7 -122 -7 -152 l0
-53 -57 6 c-75 9 -163 34 -163 46 0 6 8 10 18 10 9 0 23 4 30 8 8 6 -23 22
-88 46 -56 21 -103 36 -105 34 -6 -6 29 -208 36 -208 4 0 12 14 19 30 7 17 16
33 20 35 4 3 27 -6 51 -19 24 -14 64 -30 89 -36 65 -17 99 -37 147 -83 l43
-41 37 38 c44 44 86 67 162 90 30 9 69 25 88 36 46 27 50 26 63 -15 6 -19 15
-35 19 -35 4 0 13 37 20 83 7 45 15 94 18 110 l6 27 -79 -29 c-44 -16 -92 -35
-109 -41 l-30 -13 45 -11 45 -12 -43 -17 c-41 -17 -189 -44 -196 -36 -2 2 -6
70 -10 152 l-7 147 61 0 c45 0 60 -4 60 -14 0 -8 6 -16 14 -19 15 -6 36 11 36
29 0 7 8 10 18 8 12 -3 31 16 65 61 l47 65 -32 30 c-37 33 -48 37 -48 14 0
-11 -6 -14 -22 -9 -41 10 -231 110 -235 122 -9 26 35 53 85 53 69 0 130 -34
159 -90 13 -24 23 -35 23 -25 0 28 -47 83 -90 105 -47 24 -126 26 -157 5z
m-55 -18 c14 3 22 1 22 -7 0 -7 -7 -10 -15 -6 -32 12 -12 -6 55 -50 73 -47
176 -94 248 -113 45 -13 51 -21 27 -41 -11 -9 -25 -8 -67 5 -29 10 -64 23 -78
30 -21 11 -29 11 -44 -1 -22 -16 -38 -10 -30 11 4 8 10 12 15 9 5 -3 6 1 3 9
-2 7 -11 14 -19 14 -8 0 -12 -4 -9 -9 10 -16 -7 -30 -22 -17 -24 19 -27 2 -5
-20 22 -22 67 -28 73 -11 2 6 29 0 65 -15 35 -14 69 -25 78 -25 21 0 19 -10
-8 -43 l-22 -28 -68 26 c-115 43 -288 142 -286 163 0 4 6 22 12 40 l12 32 50
-33 c88 -59 105 -69 105 -64 0 3 -31 26 -70 52 -79 53 -84 58 -75 86 5 14 10
17 19 10 7 -6 22 -8 34 -4z m317 -157 c3 -5 1 -10 -4 -10 -6 0 -11 5 -11 10 0
6 2 10 4 10 3 0 8 -4 11 -10z m-205 -100 c12 -8 9 -10 -12 -10 -16 0 -28 5
-28 10 0 13 20 13 40 0z"/>
<path d="M970 245 c0 -21 -5 -25 -29 -25 -30 0 -41 -14 -41 -55 0 -33 26 -55
66 -55 l34 0 0 64 c0 35 3 71 6 80 4 12 0 16 -15 16 -16 0 -21 -6 -21 -25z m0
-86 c0 -20 -15 -26 -25 -9 -9 15 3 43 15 35 5 -3 10 -15 10 -26z"/>
<path d="M232 237 c-26 -27 -29 -73 -6 -105 12 -17 25 -22 60 -22 37 0 44 3
44 20 0 16 -5 19 -28 14 -35 -7 -57 16 -48 51 5 21 12 25 42 25 28 0 35 3 32
18 -5 28 -69 28 -96 -1z"/>
<path d="M1250 203 c0 -27 3 -58 6 -70 7 -27 44 -32 44 -6 0 15 1 15 18 0 10
-10 29 -17 41 -17 22 0 22 1 -8 38 l-30 38 32 32 32 32 -32 0 c-18 0 -33 -6
-37 -15 -3 -8 -10 -15 -16 -15 -5 0 -10 7 -10 15 0 8 -9 15 -20 15 -17 0 -20
-7 -20 -47z"/>
<path d="M342 167 c3 -45 6 -52 25 -55 17 -3 21 1 17 12 -7 19 13 56 31 56 8
0 15 8 15 18 0 14 -9 18 -46 20 l-45 2 3 -53z"/>
<path d="M444 194 c-16 -24 -16 -29 -3 -53 11 -19 24 -27 52 -29 45 -4 54 24
10 31 l-28 4 28 2 c26 1 28 4 25 34 -3 28 -7 32 -35 35 -25 3 -35 -2 -49 -24z"/>
<path d="M555 188 c17 -77 41 -100 64 -60 10 16 10 16 11 -1 0 -13 6 -17 21
-15 16 2 25 15 35 48 18 58 18 60 -6 60 -11 0 -20 -7 -20 -15 0 -8 -4 -15 -10
-15 -5 0 -10 7 -10 15 0 26 -29 16 -37 -12 l-7 -28 -6 25 c-3 14 -14 26 -24
28 -16 3 -17 -1 -11 -30z"/>
<path d="M1043 213 c-13 -5 -18 -60 -7 -87 7 -19 64 -22 82 -4 7 7 12 26 12
43 0 17 -5 36 -12 43 -12 12 -52 15 -75 5z m47 -42 c0 -23 -16 -36 -25 -21 -9
14 1 40 15 40 5 0 10 -9 10 -19z"/>
<path d="M1161 206 c-7 -8 -11 -32 -9 -53 3 -37 4 -38 45 -41 35 -3 42 0 37
12 -3 9 -15 16 -25 16 -26 0 -25 40 1 47 11 3 20 12 20 19 0 19 -54 18 -69 0z"/>
</g>
</svg>
